<?xml version="1.0" encoding="UTF-8" standalone="no"?>
<!-- Created with Inkscape (http://www.inkscape.org/) -->

<svg
   width="256"
   height="256"
   viewBox="0 0 67.733332 67.733333"
   version="1.1"
   id="svg1"
   xml:space="preserve"
   inkscape:version="1.3.2 (091e20e, 2023-11-25, custom)"
   sodipodi:docname="brain.svg"
   inkscape:export-filename="brain.png"
   inkscape:export-xdpi="96"
   inkscape:export-ydpi="96"
   xmlns:inkscape="http://www.inkscape.org/namespaces/inkscape"
   xmlns:sodipodi="http://sodipodi.sourceforge.net/DTD/sodipodi-0.dtd"
   xmlns="http://www.w3.org/2000/svg"
   xmlns:svg="http://www.w3.org/2000/svg"><sodipodi:namedview
     id="namedview1"
     pagecolor="#505050"
     bordercolor="#eeeeee"
     borderopacity="1"
     inkscape:showpageshadow="0"
     inkscape:pageopacity="0"
     inkscape:pagecheckerboard="0"
     inkscape:deskcolor="#505050"
     inkscape:document-units="mm"
     inkscape:zoom="0.51213161"
     inkscape:cx="250.91207"
     inkscape:cy="135.7073"
     inkscape:window-width="1920"
     inkscape:window-height="1009"
     inkscape:window-x="-8"
     inkscape:window-y="-8"
     inkscape:window-maximized="1"
     inkscape:current-layer="layer1" /><defs
     id="defs1" /><g
     inkscape:label="Layer 1"
     inkscape:groupmode="layer"
     id="layer1"><g
       id="g11"
       transform="matrix(1.3560938,0,0,1.3560938,-6.9227197,-8.6905058)"
       style="stroke:#2f2114;fill:#ad8968"><path
         d="m 25.666518,10.172875 c -1.784373,0.01714 -3.450837,0.894246 -4.475179,2.355412 h -0.526066 c -3.06708,6.8e-5 -5.553599,2.486587 -5.553666,5.553667 -3.067288,6.7e-5 -5.5538847,2.486895 -5.5536669,5.554183 0.00817,0.508822 0.086252,1.014153 0.2320272,1.501717 -1.5063255,1.02721 -2.4125807,2.728467 -2.4246582,4.55166 0.00106,1.681124 0.763607,3.271406 2.0737752,4.3248 -1.3101735,1.053401 -2.0727194,2.643669 -2.0737752,4.324801 0.010362,2.491587 1.6789478,4.671438 4.0814049,5.331974 -0.04277,0.238608 -0.06987,0.479772 -0.08113,0.72192 6.8e-5,3.067123 2.486546,5.553599 5.553666,5.553666 0.626769,-0.01173 1.24706,-0.129498 1.834514,-0.348299 1.259646,1.858517 3.353505,2.97792 5.598624,2.993099 3.765931,-2.09e-4 5.333466,-3.053292 5.33339,-6.819222 V 15.89604 15.189624 c -0.08895,-0.95695 -0.425753,-1.874211 -0.977204,-2.661337 -1.034976,-1.476158 -1.23922,-2.355169 -3.042056,-2.355412 z"
         style="fill:#ad8968;stroke:#2f2114;stroke-linejoin:round;stroke-miterlimit:5.2"
         id="path5"
         sodipodi:nodetypes="ccccccccccccccccccc" /><path
         d="m 34.490659,10.172875 c 1.784373,0.01714 3.450837,0.894246 4.475179,2.355412 h 0.526066 c 3.06708,6.8e-5 5.553599,2.486587 5.553666,5.553667 3.067288,6.7e-5 5.553884,2.486895 5.553666,5.554183 -0.0082,0.508822 -0.08625,1.014153 -0.232027,1.501717 1.506325,1.02721 2.412581,2.728467 2.424658,4.55166 -0.0011,1.681124 -0.763607,3.271406 -2.073775,4.3248 1.310173,1.053401 2.072719,2.643669 2.073775,4.324801 -0.01036,2.491587 -1.678948,4.671438 -4.081404,5.331974 0.04277,0.238608 0.06987,0.479772 0.08113,0.72192 -6.8e-5,3.067123 -2.486546,5.553599 -5.553666,5.553666 -0.626769,-0.01173 -1.24706,-0.129498 -1.834514,-0.348299 -1.259646,1.858517 -3.353505,2.97792 -5.598624,2.993099 -3.765932,-2.09e-4 -5.333467,-3.053292 -5.333391,-6.819222 V 15.89604 15.189624 c 0.08895,-0.95695 0.425753,-1.874211 0.977204,-2.661337 1.034976,-1.476158 1.23922,-2.355169 3.042057,-2.355412 z"
         style="fill:#ad8968;stroke:#2f2114;stroke-linejoin:round;stroke-miterlimit:5.2"
         id="path6"
         sodipodi:nodetypes="ccccccccccccccccccc" /><path
         d="m 9.7636123,22.244491 c -0.1297966,0.452746 -0.1989573,0.92071 -0.2056722,1.391646 8.6e-6,2.941055 2.3842029,5.325248 5.3252569,5.325257"
         style="fill:#ad8968;stroke:#2f2114;stroke-width:1;stroke-linecap:round;stroke-linejoin:round;stroke-miterlimit:5.2;stroke-dasharray:none"
         id="path8"
         sodipodi:nodetypes="ccc" /><path
         d="m 15.527604,49.741002 c 0.452746,0.129797 0.92071,0.198958 1.391646,0.205673 2.941055,-9e-6 5.325248,-2.384203 5.325257,-5.325257"
         style="fill:#ad8968;stroke:#2f2114;stroke-width:1;stroke-linecap:round;stroke-linejoin:round;stroke-miterlimit:5.2;stroke-dasharray:none"
         id="path8-2"
         sodipodi:nodetypes="ccc" /><path
         d="m 38.118343,43.229772 c -0.129797,0.452746 -0.198958,0.92071 -0.205673,1.391646 9e-6,2.941055 2.384203,5.325248 5.325257,5.325257"
         style="fill:#ad8968;stroke:#2f2114;stroke-width:1;stroke-linecap:round;stroke-linejoin:round;stroke-miterlimit:5.2;stroke-dasharray:none"
         id="path8-2-9"
         sodipodi:nodetypes="ccc" /><path
         d="m 43.882333,28.755721 c 0.452746,0.129797 0.92071,0.198958 1.391646,0.205673 2.941055,-9e-6 5.325248,-2.384203 5.325257,-5.325257"
         style="fill:#ad8968;stroke:#2f2114;stroke-width:1;stroke-linecap:round;stroke-linejoin:round;stroke-miterlimit:5.2;stroke-dasharray:none"
         id="path8-2-2"
         sodipodi:nodetypes="ccc" /><path
         d="m 25.784857,19.24519 c 0.129797,-0.452746 0.198958,-0.92071 0.205673,-1.391646 -8e-6,-2.941055 -2.384203,-5.325248 -5.325257,-5.325257"
         style="fill:#ad8968;stroke:#2f2114;stroke-width:1;stroke-linecap:round;stroke-linejoin:round;stroke-miterlimit:5.2;stroke-dasharray:none"
         id="path9"
         sodipodi:nodetypes="ccc" /><path
         d="m 25.784857,35.678297 c 0.129797,-0.452746 0.198958,-0.92071 0.205673,-1.391646 -8e-6,-2.941055 -2.384203,-5.325248 -5.325257,-5.325257"
         style="fill:#ad8968;stroke:#2f2114;stroke-width:1;stroke-linecap:round;stroke-linejoin:round;stroke-miterlimit:5.2;stroke-dasharray:none"
         id="path11"
         sodipodi:nodetypes="ccc" /></g></g></svg>
